<?xml version="1.0" standalone="no"?>
<!DOCTYPE svg PUBLIC "-//W3C//DTD SVG 20010904//EN"
 "http://www.w3.org/TR/2001/REC-SVG-20010904/DTD/svg10.dtd">
<svg version="1.0" xmlns="http://www.w3.org/2000/svg"
 width="1120.000000pt" height="1038.000000pt" viewBox="0 0 1120.000000 1038.000000"
 preserveAspectRatio="xMidYMid meet">
<metadata>
Created by potrace 1.16, written by Peter Selinger 2001-2019
</metadata>
<g transform="translate(0.000000,1038.000000) scale(0.100000,-0.100000)"
fill="currentColor" stroke="none">
<path d="M3975 10341 c-859 -273 -1596 -727 -2231 -1372 -872 -887 -1386
-1992 -1520 -3265 -14 -128 -18 -252 -18 -514 0 -368 11 -528 59 -835 138
-881 490 -1712 1023 -2419 281 -371 672 -764 1040 -1044 500 -379 1079 -678
1666 -859 l109 -33 1497 0 1497 0 109 33 c1148 354 2165 1105 2856 2112 506
737 815 1593 914 2531 26 238 26 790 0 1028 -119 1127 -527 2101 -1239 2960
-217 260 -583 610 -865 824 -500 379 -1079 678 -1666 859 l-109 33 -1501 -1
-1501 0 -120 -38z m1805 -537 c194 -105 339 -448 395 -934 16 -135 20 -447 6
-468 -7 -12 -14 -11 -38 2 -17 8 -33 13 -35 11 -2 -3 -12 95 -22 216 -39 497
-123 818 -262 1005 -99 133 -197 143 -310 30 -137 -138 -255 -468 -308 -866
-24 -177 -25 -177 -21 0 13 527 195 974 419 1031 50 13 123 2 176 -27z m-1635
-704 c184 -66 403 -193 580 -335 121 -97 265 -228 320 -291 l54 -61 -38 -16
c-21 -10 -41 -17 -46 -17 -4 0 -60 46 -124 103 -405 360 -755 557 -991 557
-89 0 -129 -20 -164 -80 -27 -45 -28 -168 -3 -255 59 -203 214 -483 400 -725
l50 -65 -62 60 c-144 138 -300 357 -392 550 -64 135 -89 212 -96 304 -8 107
13 178 71 235 62 63 108 76 241 72 94 -3 123 -8 200 -36z m3378 -58 c90 -40
147 -141 147 -263 0 -196 -165 -538 -407 -839 -75 -94 -276 -301 -309 -318
-19 -10 -23 -7 -36 27 l-15 38 79 89 c289 322 483 617 560 849 31 96 33 240 2
281 -45 61 -66 69 -182 68 -92 -1 -120 -5 -199 -32 -176 -60 -413 -195 -638
-365 -116 -87 -119 -87 -30 -2 264 253 582 443 815 486 64 11 164 3 213 -19z
m-1748 -1227 c40 -8 115 -37 175 -66 90 -45 117 -65 191 -139 75 -74 94 -100
137 -191 65 -134 87 -234 79 -374 -14 -272 -170 -503 -422 -625 -130 -63 -184
-75 -330 -75 -97 0 -134 5 -195 24 -302 94 -508 337 -539 638 -38 362 171 679
519 791 36 12 76 23 90 25 60 10 231 5 295 -8z m-1518 -151 l51 -7 -12 -35
c-16 -44 -25 -47 -186 -56 -518 -29 -947 -149 -1094 -306 -89 -95 -85 -175 12
-270 64 -63 132 -103 259 -156 154 -64 254 -89 653 -163 93 -17 -220 -4 -330
14 -363 59 -632 186 -715 336 -39 71 -41 160 -6 229 70 136 285 259 595 339
215 56 611 94 773 75z m3406 -185 c150 -26 362 -94 467 -150 261 -139 304
-358 102 -525 -169 -139 -518 -252 -875 -284 -125 -11 -358 -13 -405 -4 -29 6
-30 7 -20 38 6 17 13 34 17 38 3 3 82 11 176 17 514 35 909 141 1065 287 135
126 99 250 -110 374 -146 87 -446 180 -702 217 -64 10 -115 20 -113 23 7 11
280 -10 398 -31z m-3358 -955 c19 -41 26 -30 -91 -159 -255 -284 -454 -588
-531 -812 -35 -103 -38 -230 -8 -283 35 -59 76 -75 185 -74 80 1 111 6 195 34
182 62 397 183 625 354 140 105 144 106 45 11 -172 -166 -364 -302 -550 -390
-177 -84 -286 -110 -396 -95 -352 49 -275 554 169 1110 81 102 312 340 329
340 6 0 18 -16 28 -36z m2992 -548 c137 -182 256 -417 284 -556 16 -83 8 -205
-18 -255 -130 -251 -589 -138 -1093 268 -121 98 -330 300 -330 320 0 10 46 36
74 41 2 1 53 -42 112 -94 440 -388 781 -580 1011 -568 85 4 117 22 151 89 21
39 23 54 19 130 -12 194 -149 479 -389 809 l-69 95 84 -87 c47 -48 120 -134
164 -192z m-2205 -210 l34 -15 12 -193 c35 -567 164 -979 343 -1100 192 -128
415 210 513 777 14 83 30 175 36 205 7 43 8 22 5 -100 -4 -168 -30 -348 -71
-488 -116 -399 -281 -566 -490 -495 -75 25 -177 133 -237 250 -88 171 -159
429 -188 678 -14 120 -18 449 -7 478 9 21 7 20 50 3z m-64 -2313 l27 -58 153
-3 152 -3 0 -44 0 -45 -269 0 -270 0 25 -62 c13 -34 24 -67 24 -74 0 -32 31
-44 110 -44 91 0 92 1 131 103 l22 58 41 -6 c61 -10 64 -18 32 -82 -21 -44
-25 -58 -14 -64 7 -5 57 -9 111 -9 l97 0 0 -45 0 -45 -415 0 -415 0 0 45 0 45
93 0 c50 0 98 4 104 8 10 6 8 22 -8 71 -23 69 -19 81 29 81 12 0 22 5 22 10 0
6 -38 10 -95 10 l-95 0 0 45 0 45 149 0 c83 0 152 4 155 9 3 5 -1 25 -9 45
-24 56 -24 56 68 64 12 2 26 -15 45 -55z m2942 46 c55 -12 59 -19 30 -56 -11
-14 -17 -30 -14 -35 4 -6 73 -9 168 -7 135 2 166 0 194 -15 17 -9 32 -22 32
-28 0 -6 -22 -42 -49 -79 -27 -37 -47 -70 -44 -73 4 -3 89 -6 190 -6 l183 0 0
-165 0 -165 -305 0 c-168 0 -305 -3 -305 -7 0 -5 16 -19 36 -32 19 -13 68 -60
109 -103 l73 -78 97 55 c53 30 124 73 157 95 33 22 65 40 72 40 6 0 28 -13 49
-29 l38 -29 -28 -19 c-15 -11 -61 -39 -100 -62 -40 -23 -73 -47 -73 -53 0 -25
84 -139 148 -200 37 -36 93 -80 125 -97 31 -18 57 -35 57 -38 0 -2 -15 -24
-33 -48 l-34 -44 -52 30 c-98 56 -184 154 -297 336 -14 22 -15 22 -49 6 -40
-19 -40 -18 -19 -84 12 -36 15 -72 12 -129 -6 -96 -33 -144 -105 -187 -45 -26
-56 -28 -157 -28 l-109 0 -13 45 c-8 25 -14 46 -14 48 0 1 43 2 95 2 135 0
187 32 200 124 6 39 -9 126 -21 126 -3 0 -31 -17 -62 -38 -121 -82 -293 -163
-469 -222 l-81 -28 -31 38 c-17 22 -31 41 -31 44 0 2 26 12 58 21 105 29 256
87 357 138 107 53 215 122 215 137 0 4 -12 22 -26 39 l-26 31 -41 -26 c-80
-49 -257 -131 -358 -165 l-100 -34 -29 35 c-34 41 -36 50 -13 50 56 0 397 138
458 186 20 15 19 16 -20 50 -22 18 -44 34 -49 34 -5 0 -59 -24 -120 -54 -61
-29 -149 -66 -195 -81 l-84 -28 -28 34 c-16 19 -27 38 -26 43 2 5 41 19 87 33
103 29 223 79 253 104 22 18 21 18 -90 19 l-113 0 0 109 c0 61 -4 112 -9 116
-5 3 -25 -4 -45 -16 l-35 -21 -29 34 c-17 18 -31 36 -33 40 -2 3 38 34 89 67
97 64 250 204 297 271 15 22 29 40 31 40 2 0 26 -5 54 -11z m-3598 -181 l3
-173 70 -5 70 -5 3 -47 3 -47 -73 -3 -73 -3 -3 -225 c-1 -123 0 -230 2 -237 4
-10 21 -7 72 12 36 14 70 25 74 25 5 0 11 -15 15 -32 4 -18 9 -40 11 -50 4
-13 -34 -32 -200 -97 -113 -45 -211 -81 -219 -81 -17 0 -52 89 -40 101 5 5 44
21 88 36 l80 28 3 263 2 262 -80 0 -80 0 0 50 0 50 80 0 80 0 0 159 c0 88 3
166 6 175 4 12 20 16 55 16 l49 0 2 -172z m-802 -148 l0 -270 -512 2 -513 3
-3 48 -3 47 450 0 c247 0 456 3 465 6 12 5 16 21 16 65 l0 59 -432 2 -433 3 0
40 0 40 433 3 432 2 0 60 0 60 -462 2 -463 3 -3 48 -3 47 515 0 516 0 0 -270z
m3538 168 l-3 -53 -387 -3 -386 -2 -6 -88 c-4 -48 -9 -115 -12 -149 l-6 -63
331 0 331 0 0 -51 c0 -159 -40 -546 -65 -635 -36 -125 -112 -156 -337 -140
l-94 8 -13 41 c-6 23 -14 47 -17 52 -3 7 45 9 141 7 173 -5 186 0 210 80 20
69 42 242 51 401 l7 127 -278 -2 -278 -3 -19 -92 c-35 -176 -105 -330 -202
-447 -42 -51 -143 -138 -193 -168 l-30 -17 -42 43 -42 43 57 38 c249 165 357
414 380 877 l7 138 -199 2 -199 3 -3 53 -3 52 651 0 651 0 -3 -52z m-1788
-598 l0 -210 -90 0 -90 0 0 -128 c0 -86 4 -132 12 -140 7 -7 41 -12 82 -12 82
0 105 15 107 69 1 20 4 48 8 63 l6 27 40 -22 c38 -22 39 -23 37 -72 -7 -128
-34 -148 -197 -149 -119 -1 -167 11 -188 48 -6 12 -13 82 -15 169 l-4 147 -62
0 -63 0 -16 -78 c-33 -150 -111 -234 -267 -287 -41 -14 -78 -25 -82 -25 -9 0
-63 79 -57 84 2 2 36 13 75 25 104 30 162 74 202 150 18 35 32 78 32 97 l0 34
-75 0 -75 0 0 210 0 210 340 0 340 0 0 -210z m-2185 73 c-4 -32 -11 -77 -16
-100 -14 -65 25 -138 125 -239 108 -108 238 -174 406 -204 123 -22 114 -13 78
-71 -31 -50 -32 -50 -72 -43 -225 37 -438 159 -541 308 -21 31 -42 56 -46 56
-5 0 -20 -23 -34 -51 -71 -140 -239 -249 -474 -309 -46 -11 -90 -20 -97 -18
-8 2 -26 22 -40 45 l-25 42 28 6 c99 22 220 61 291 95 181 86 271 230 297 473
l7 67 60 0 59 0 -6 -57z m-441 -43 l46 -19 -21 -53 c-38 -99 -114 -218 -138
-218 -15 0 -81 41 -81 51 0 5 18 32 40 61 22 29 54 86 72 126 17 39 33 72 34
72 1 0 23 -9 48 -20z m866 -5 c22 -14 40 -30 40 -36 0 -12 -109 -198 -139
-237 l-17 -24 -37 22 c-20 12 -37 26 -37 31 0 4 14 32 31 60 17 29 48 88 70
131 22 43 42 78 44 78 3 0 23 -11 45 -25z m1590 -1446 l0 -30 48 7 c58 8 62
10 62 35 0 27 18 24 22 -3 2 -18 11 -24 38 -27 l35 -4 -35 -6 c-27 -5 -36 -11
-38 -28 -3 -20 1 -23 27 -23 38 0 39 -15 6 -64 -14 -20 -25 -39 -25 -41 0 -3
16 -13 36 -23 21 -11 32 -22 27 -25 -6 -4 -27 2 -48 13 -37 19 -38 19 -76 0
-44 -23 -49 -24 -49 -10 0 5 15 17 33 26 17 9 33 18 35 19 1 1 -9 22 -23 46
-32 56 -31 59 6 59 26 0 30 3 27 23 -4 27 -37 34 -78 15 -37 -16 -41 -52 -7
-62 21 -7 21 -7 2 -15 -16 -6 -21 -20 -25 -62 -4 -47 -8 -54 -27 -57 -13 -2
-23 1 -23 7 0 6 7 11 15 11 11 0 15 11 15 40 0 33 -3 40 -20 40 -11 0 -20 5
-20 10 0 6 9 10 20 10 31 0 29 65 -2 75 l-23 8 23 4 c17 3 22 11 22 34 0 16 5
29 10 29 6 0 10 -14 10 -31z m1306 16 c-4 -12 3 -15 29 -15 19 0 35 -4 35 -10
0 -5 -18 -10 -40 -10 -29 0 -40 -4 -40 -15 0 -10 11 -15 35 -15 l35 0 0 -69
c0 -55 -3 -70 -16 -75 -9 -4 -20 -3 -23 0 -3 4 0 9 7 11 21 8 13 33 -11 33
-16 0 -27 -9 -34 -27 -10 -25 -11 -21 -12 35 -1 34 -3 62 -5 62 -26 0 -36 -16
-36 -61 0 -58 19 -73 93 -72 26 0 47 -3 47 -8 0 -16 -104 -10 -129 8 -22 15
-25 15 -37 -2 -8 -10 -17 -16 -21 -12 -3 4 1 15 10 25 19 20 24 102 7 102 -5
0 -10 5 -10 10 0 6 9 10 21 10 11 0 29 10 40 23 22 27 24 37 4 37 -8 0 -15 5
-15 10 0 6 9 10 20 10 11 0 23 7 26 15 4 8 11 15 16 15 6 0 8 -7 4 -15z m716
-12 c3 -26 7 -28 56 -31 66 -4 59 -22 -9 -22 -48 0 -49 -1 -49 -30 0 -29 2
-30 44 -30 61 0 68 -18 9 -22 -48 -3 -48 -3 -51 -40 l-3 -38 60 0 c34 0 61 -4
61 -10 0 -6 -50 -10 -130 -10 -80 0 -130 4 -130 10 0 6 27 10 60 10 l60 0 0
40 0 40 -40 0 c-22 0 -40 5 -40 10 0 6 18 10 40 10 38 0 40 2 40 30 0 28 -3
30 -34 30 -25 0 -39 -7 -50 -22 -26 -37 -29 -12 -4 41 24 53 41 67 36 29 -2
-19 2 -24 25 -26 24 -3 27 0 27 27 0 38 18 41 22 4z m-3012 -38 l0 -55 -45 0
c-43 0 -45 -1 -45 -29 0 -35 42 -80 82 -88 28 -5 45 -20 35 -29 -8 -8 -80 25
-105 48 l-22 22 -15 -21 c-18 -25 -94 -58 -107 -45 -5 5 8 14 30 20 48 14 71
39 82 86 l8 36 -49 0 c-27 0 -49 5 -49 10 0 6 37 10 90 10 73 0 90 3 90 15 0
12 -17 15 -87 17 l-88 2 88 3 c68 3 87 7 87 18 0 12 -18 15 -90 15 -53 0 -90
4 -90 10 0 6 40 10 100 10 l100 0 0 -55z m1950 -84 c0 -30 -4 -40 -20 -44 -12
-3 -20 -14 -20 -26 0 -29 28 -38 45 -15 14 18 14 18 15 -3 0 -26 -31 -39 -60
-23 -13 7 -20 21 -20 40 0 36 -17 39 -30 6 -12 -32 -57 -63 -71 -49 -7 7 -2
12 15 17 31 8 45 45 22 58 -16 9 -22 58 -9 71 3 4 35 7 70 7 l63 0 0 -39z"/>
<path d="M5524 7710 c-128 -18 -293 -104 -374 -197 -109 -124 -162 -260 -161
-418 0 -168 52 -307 157 -423 372 -412 1044 -182 1091 373 20 240 -129 499
-348 603 -126 60 -241 79 -365 62z m145 -381 c70 -16 127 -64 163 -136 27 -56
30 -70 25 -123 -19 -211 -269 -305 -418 -156 -130 130 -73 356 103 411 53 17
71 17 127 4z"/>
<path d="M7846 3273 c-30 -27 -55 -54 -55 -60 -1 -10 40 -13 173 -13 l174 0
41 51 c22 28 38 55 35 60 -3 5 -75 9 -159 9 l-155 0 -54 -47z"/>
<path d="M7757 3113 c-4 -3 -7 -39 -7 -80 l0 -73 133 0 133 0 31 33 c41 44 83
108 77 119 -6 9 -358 11 -367 1z"/>
<path d="M8254 3112 c-6 -4 -27 -33 -48 -65 -21 -31 -42 -60 -47 -63 -31 -19
9 -24 191 -24 l201 0 -3 78 -3 77 -140 2 c-77 2 -145 0 -151 -5z"/>
<path d="M4744 2866 c-3 -8 -4 -29 -2 -48 l3 -33 233 -3 233 -2 -3 47 -3 48
-228 3 c-189 2 -228 0 -233 -12z"/>
<path d="M4744 2696 c-3 -8 -4 -29 -2 -48 l3 -33 233 -3 233 -2 -3 47 -3 48
-228 3 c-189 2 -228 0 -233 -12z"/>
</g>
</svg>
